<?xml version="1.0" encoding="UTF-8"?>
<svg id="Layer_1" data-name="Layer 1" xmlns="http://www.w3.org/2000/svg" width="2076.9" height="1339" version="1.1" viewBox="0 0 2076.9 1339">
  <defs>
    <style>
      .cls-1, .cls-2 {
        fill: #14357a;
        stroke-width: 0px;
      }

      .cls-2 {
        fill-rule: evenodd;
      }
    </style>
  </defs>
  <rect class="cls-1" width="606.6" height="318.6"/>
  <rect class="cls-1" y="354.2" width="427.3" height="252.6"/>
  <rect class="cls-1" x="1640.2" y="688.5" width="436.7" height="247.3"/>
  <rect class="cls-1" y="641.3" width="606.6" height="294.6"/>
  <rect class="cls-1" x="666.7" width="312.3" height="935.9"/>
  <rect class="cls-1" x="1780.9" y="2.5" width="296.9" height="933.4"/>
  <polygon class="cls-2" points="1232.3 2.5 1581.5 2.5 1022.1 935.9 672.8 935.9 1232.3 2.5"/>
  <polygon class="cls-2" points="1650.5 2.5 1999.8 2.5 1445.9 935.9 1096.6 935.9 1650.5 2.5"/>
  <path class="cls-1" d="M264.4,1310.6c-27,18.9-59.4,28.4-97.2,28.4s-89.7-13.2-118.8-39.6c-30-27.3-45-65.7-45-115.2s14.4-86.5,43.2-114.5c28.8-28.1,68-42.1,117.5-42.1s67.5,7.5,91.8,22.5c27.6,17.1,45.2,44,52.7,80.6h-16.7c-13.2-58.8-55.7-88.2-127.4-88.2s-80,12.6-106,37.8c-26,25.2-38.9,59.7-38.9,103.5s13.1,79.3,39.5,103.7c26.3,24.5,62.4,36.7,108.4,36.7s65-9,89.3-27c27.4-19.8,41-46.7,41-80.6v-11.7h-131.4v-14.9h146.3c.9,8.4,1.3,15.6,1.3,21.6,0,42.9-16.5,75.9-49.5,99"/>
  <path class="cls-1" d="M506.2,1053.3l-78.5,169.6h154l-75.5-169.6ZM631.8,1335.9l-43.9-98.2h-167l-44.6,98.1h-18.8l140.4-305.1h16.7l135,305.1h-17.7Z"/>
  <polygon class="cls-1" points="698 1335.8 698 1030.7 714.2 1030.7 714.2 1321 906.8 1321 906.8 1335.8 698 1335.8"/>
  <polygon class="cls-1" points="953.9 1335.8 953.9 1030.7 970.1 1030.7 970.1 1321 1162.8 1321 1162.8 1335.8 953.9 1335.8"/>
  <polygon class="cls-1" points="1209.9 1335.8 1209.9 1030.7 1435.4 1030.7 1435.4 1045.5 1226.1 1045.5 1226.1 1169.3 1411.5 1169.3 1411.5 1184.1 1226.1 1184.1 1226.1 1321 1437.6 1321 1437.6 1335.8 1209.9 1335.8"/>
  <path class="cls-1" d="M1636.9,1045.5h-128.3v135.9h121.1c26.1,0,47.4-5.1,63.9-15.4,20.1-12.3,30.2-30.7,30.2-55.1,0-43.7-29-65.5-86.9-65.5M1681.4,1187.3c36,10.8,54,35,54,72.5v76.1h-16.2v-74.7c0-43.2-29.1-64.8-87.3-64.8h-123.3v139.5h-16.2v-305.1h143.6c69.3,0,104,26.3,104,78.8s-19.5,65.6-58.5,77.9Z"/>
  <polygon class="cls-1" points="1936.9 1187.3 1936.9 1335.8 1920.7 1335.8 1920.7 1187.3 1779.9 1030.7 1800.5 1030.7 1928.2 1172.1 2056.5 1030.5 2076.9 1030.7 1936.9 1187.3"/>
</svg>