<?xml version="1.0" encoding="UTF-8"?>
<!DOCTYPE svg PUBLIC "-//W3C//DTD SVG 1.1//EN" "http://www.w3.org/Graphics/SVG/1.1/DTD/svg11.dtd">
<svg xmlns="http://www.w3.org/2000/svg" version="1.1" width="2208px" height="2198px" style="shape-rendering:geometricPrecision; text-rendering:geometricPrecision; image-rendering:optimizeQuality; fill-rule:evenodd; clip-rule:evenodd" xmlns:xlink="http://www.w3.org/1999/xlink">
<g><path style="opacity:0.988" fill="#fecb00" d="M 1102.5,-0.5 C 1103.17,-0.5 1103.83,-0.5 1104.5,-0.5C 1109.79,8.41002 1114.29,17.7434 1118,27.5C 1126.03,51.1256 1133.2,74.9589 1139.5,99C 1175.17,99.6807 1210.84,100.514 1246.5,101.5C 1246.39,103.783 1245.56,105.783 1244,107.5C 1239.83,111.667 1235.67,115.833 1231.5,120C 1209.75,135.623 1187.92,151.123 1166,166.5C 1165.92,175.675 1167.25,184.675 1170,193.5C 1176.27,211.306 1181.94,229.306 1187,247.5C 1189.08,255.77 1189.58,264.103 1188.5,272.5C 1160.17,253.167 1131.83,233.833 1103.5,214.5C 1097.34,217.748 1091.34,221.248 1085.5,225C 1070.45,237.05 1055.12,248.717 1039.5,260C 1032.34,264.579 1024.67,268.079 1016.5,270.5C 1015.92,260.694 1017.09,251.028 1020,241.5C 1027.14,218.25 1034.97,195.25 1043.5,172.5C 1039.35,166.52 1034.35,161.354 1028.5,157C 1009.64,144.737 991.306,131.737 973.5,118C 968.005,112.838 963.671,106.838 960.5,100C 995.833,99.6667 1031.17,99.3333 1066.5,99C 1078.8,65.9292 1090.8,32.7625 1102.5,-0.5 Z"/></g>
<g><path style="opacity:0.988" fill="#fecb00" d="M 623.5,123.5 C 624.79,124.058 625.623,125.058 626,126.5C 637.808,160.09 649.308,193.757 660.5,227.5C 697.202,228.461 733.868,229.961 770.5,232C 741.287,254.434 712.287,277.101 683.5,300C 693.747,334.838 703.08,369.671 711.5,404.5C 681.794,383.623 651.961,362.957 622,342.5C 593.592,360.955 565.425,379.789 537.5,399C 536.552,399.483 535.552,399.649 534.5,399.5C 534.978,388.609 536.811,377.942 540,367.5C 548.202,346.894 555.202,325.894 561,304.5C 561.667,302.167 561.667,299.833 561,297.5C 556.468,292.633 551.634,288.133 546.5,284C 531.324,273.579 516.324,262.912 501.5,252C 493.081,245.583 486.081,237.916 480.5,229C 515.501,228.895 550.501,228.895 585.5,229C 598.464,193.941 611.131,158.774 623.5,123.5 Z"/></g>
<g><path style="opacity:0.988" fill="#fecb00" d="M 1584.5,123.5 C 1585.5,123.47 1586.16,123.97 1586.5,125C 1598.4,158.871 1610.4,192.705 1622.5,226.5C 1658.49,227.967 1694.49,229.134 1730.5,230C 1726.58,235.926 1721.91,241.259 1716.5,246C 1694.83,261 1673.17,276 1651.5,291C 1648.65,293.682 1645.98,296.516 1643.5,299.5C 1653.49,333.116 1663.32,366.782 1673,400.5C 1673.78,401.944 1673.61,403.277 1672.5,404.5C 1643.13,383.291 1613.63,362.291 1584,341.5C 1555.04,360.956 1526.21,380.623 1497.5,400.5C 1496.47,389.969 1497.64,379.636 1501,369.5C 1506.99,352.176 1512.99,334.843 1519,317.5C 1520.75,311.395 1522.25,305.229 1523.5,299C 1518.85,293.012 1513.51,287.679 1507.5,283C 1490.56,272.393 1473.9,261.393 1457.5,250C 1451.56,244.903 1446.56,239.069 1442.5,232.5C 1442.71,231.914 1443.04,231.414 1443.5,231C 1464.49,229.666 1485.49,229.832 1506.5,231.5C 1516.94,231.183 1527.27,230.017 1537.5,228C 1546.26,225.57 1552.1,220.07 1555,211.5C 1561.18,189.788 1567.51,168.121 1574,146.5C 1576.98,138.543 1580.48,130.876 1584.5,123.5 Z"/></g>
<g><path style="opacity:0.988" fill="#fecb00" d="M 1936.5,473.5 C 1937.12,473.611 1937.62,473.944 1938,474.5C 1949.7,509.401 1961.54,544.234 1973.5,579C 2009.84,580.972 2046.17,582.972 2082.5,585C 2054.95,605.554 2027.11,625.72 1999,645.5C 1998.46,652.596 1999.13,659.596 2001,666.5C 2008.87,689.771 2016.53,713.104 2024,736.5C 2025.5,742.482 2025.67,748.482 2024.5,754.5C 2016.44,750.598 2008.78,746.098 2001.5,741C 1987.45,729.286 1973.12,717.952 1958.5,707C 1951.27,701.968 1943.44,698.134 1935,695.5C 1929.28,698.205 1923.78,701.372 1918.5,705C 1903.53,717.152 1888.19,728.819 1872.5,740C 1864.53,744.732 1856.03,748.232 1847,750.5C 1846.17,750.167 1845.33,749.833 1844.5,749.5C 1854.58,715.333 1864.58,681.167 1874.5,647C 1855.17,633.667 1835.83,620.333 1816.5,607C 1806.6,600.265 1798.6,591.765 1792.5,581.5C 1825.48,580 1858.48,579.167 1891.5,579C 1894.23,578.818 1896.89,578.318 1899.5,577.5C 1911.84,542.81 1924.17,508.143 1936.5,473.5 Z"/></g>
<g><path style="opacity:0.988" fill="#fecb00" d="M 272.5,473.5 C 273.117,473.611 273.617,473.944 274,474.5C 284.94,509.433 296.107,544.266 307.5,579C 344.822,580.8 382.155,582.466 419.5,584C 392.113,604.387 364.446,624.387 336.5,644C 334.878,645.295 333.545,646.795 332.5,648.5C 333.76,656.633 335.593,664.633 338,672.5C 343.868,689.103 349.534,705.77 355,722.5C 357.739,732.002 359.072,741.669 359,751.5C 351.565,749.034 344.398,745.868 337.5,742C 321.957,731.058 306.957,719.392 292.5,707C 286.172,702.253 279.339,698.42 272,695.5C 265.889,697.304 260.055,699.804 254.5,703C 239.216,713.949 224.216,725.282 209.5,737C 201.954,742.274 193.954,746.774 185.5,750.5C 184.287,743.811 184.453,737.145 186,730.5C 191.865,710.238 198.532,690.238 206,670.5C 207.892,663.369 209.392,656.202 210.5,649C 206.833,646 203.167,643 199.5,640C 182.649,629.743 166.315,618.743 150.5,607C 141.86,599.859 134.86,591.359 129.5,581.5C 164.486,580.126 199.486,579.126 234.5,578.5C 247.568,543.629 260.234,508.629 272.5,473.5 Z"/></g>
<g><path style="opacity:0.993" fill="#003298" d="M 461.5,740.5 C 587.167,740.5 712.833,740.5 838.5,740.5C 838.5,806.833 838.5,873.167 838.5,939.5C 712.833,939.5 587.167,939.5 461.5,939.5C 461.5,873.167 461.5,806.833 461.5,740.5 Z"/></g>
<g><path style="opacity:0.995" fill="#003298" d="M 874.5,740.5 C 939.5,740.5 1004.5,740.5 1069.5,740.5C 1069.33,827.501 1069.5,914.501 1070,1001.5C 1121.3,915.369 1172.8,829.369 1224.5,743.5C 1297.17,742.167 1369.83,742.167 1442.5,743.5C 1327.21,936.582 1211.54,1129.42 1095.5,1322C 1021.83,1322.5 948.167,1322.67 874.5,1322.5C 874.5,1128.5 874.5,934.5 874.5,740.5 Z"/></g>
<g><path style="opacity:0.995" fill="#003298" d="M 1484.5,742.5 C 1573.17,742.5 1661.83,742.5 1750.5,742.5C 1750.5,935.833 1750.5,1129.17 1750.5,1322.5C 1659.83,1322.5 1569.17,1322.5 1478.5,1322.5C 1478.5,1270.83 1478.5,1219.17 1478.5,1167.5C 1507.5,1167.5 1536.5,1167.5 1565.5,1167.5C 1565.67,1103.17 1565.5,1038.83 1565,974.5C 1496.04,1090.25 1427.21,1206.08 1358.5,1322C 1286.17,1322.5 1213.83,1322.67 1141.5,1322.5C 1141.49,1320.69 1141.99,1319.02 1143,1317.5C 1256.84,1125.81 1370.68,934.139 1484.5,742.5 Z"/></g>
<g><path style="opacity:0.988" fill="#fecb00" d="M 2207.5,1062.5 C 2207.5,1063.5 2207.5,1064.5 2207.5,1065.5C 2201.7,1072.13 2195.36,1078.3 2188.5,1084C 2167.67,1098.83 2146.83,1113.67 2126,1128.5C 2126.55,1135.91 2127.88,1143.24 2130,1150.5C 2136.6,1168.64 2142.6,1186.97 2148,1205.5C 2150.33,1214.75 2150.83,1224.08 2149.5,1233.5C 2121.25,1214.75 2093.42,1195.42 2066,1175.5C 2059.13,1178.35 2052.63,1181.85 2046.5,1186C 2030.79,1198.72 2014.79,1211.05 1998.5,1223C 1992.07,1227.22 1985.07,1229.72 1977.5,1230.5C 1977.36,1221.34 1978.53,1212.34 1981,1203.5C 1986.8,1186.44 1992.8,1169.44 1999,1152.5C 2000.89,1145.41 2002.39,1138.24 2003.5,1131C 2001.18,1127.35 1998.18,1124.35 1994.5,1122C 1974.97,1109.41 1955.97,1096.07 1937.5,1082C 1931.15,1076.15 1926.15,1069.32 1922.5,1061.5C 1957.49,1060.5 1992.49,1060.17 2027.5,1060.5C 2040.03,1025.09 2052.87,989.757 2066,954.5C 2077.79,989.357 2089.29,1024.36 2100.5,1059.5C 2136.15,1061.18 2171.81,1062.18 2207.5,1062.5 Z"/></g>
<g><path style="opacity:0.991" fill="#003298" d="M 461.5,960.5 C 550.167,960.5 638.833,960.5 727.5,960.5C 727.831,1013.07 727.497,1065.57 726.5,1118C 638.167,1118.5 549.834,1118.67 461.5,1118.5C 461.5,1065.83 461.5,1013.17 461.5,960.5 Z"/></g>
<g><path style="opacity:0.987" fill="#fecb00" d="M -0.5,1062.5 C -0.5,1061.83 -0.5,1061.17 -0.5,1060.5C 33.5016,1060.67 67.5016,1060.5 101.5,1060C 106.46,1054.59 110.294,1048.42 113,1041.5C 120.062,1020.98 126.729,1000.31 133,979.5C 135.404,973.022 138.571,967.022 142.5,961.5C 148.526,968.212 153.026,975.879 156,984.5C 161.289,1000.99 165.956,1017.66 170,1034.5C 172.332,1043.5 175.832,1052 180.5,1060C 216.845,1061.66 253.179,1063.49 289.5,1065.5C 260.321,1086.92 231.321,1108.59 202.5,1130.5C 212.744,1165.72 222.244,1201.05 231,1236.5C 201.333,1215.83 171.667,1195.17 142,1174.5C 136.5,1178 131,1181.5 125.5,1185C 111.347,1196.24 97.0135,1207.24 82.5,1218C 73.1129,1223.86 63.1129,1228.36 52.5,1231.5C 61.1735,1196.95 70.8402,1162.45 81.5,1128C 61.847,1113.84 41.847,1100.17 21.5,1087C 12.5057,1080.18 5.1724,1072.01 -0.5,1062.5 Z"/></g>
<g><path style="opacity:0.992" fill="#003298" d="M 461.5,1138.5 C 587.167,1138.5 712.833,1138.5 838.5,1138.5C 838.5,1199.83 838.5,1261.17 838.5,1322.5C 712.833,1322.5 587.167,1322.5 461.5,1322.5C 461.5,1261.17 461.5,1199.83 461.5,1138.5 Z"/></g>
<g><path style="opacity:0.943" fill="#003297" d="M 549.5,1376.5 C 574.065,1374.15 597.398,1378.32 619.5,1389C 638.898,1401.25 650.565,1418.75 654.5,1441.5C 650.5,1441.5 646.5,1441.5 642.5,1441.5C 635.098,1410.27 615.432,1392.44 583.5,1388C 559.414,1384.12 536.414,1387.45 514.5,1398C 496.394,1408.78 484.227,1424.28 478,1444.5C 470.862,1472.06 473.529,1498.72 486,1524.5C 501.786,1547.15 523.619,1559.65 551.5,1562C 577.475,1565.48 601.142,1559.81 622.5,1545C 640.684,1530.65 648.684,1511.81 646.5,1488.5C 619.167,1488.5 591.833,1488.5 564.5,1488.5C 564.5,1485.17 564.5,1481.83 564.5,1478.5C 595.5,1478.5 626.5,1478.5 657.5,1478.5C 662.673,1519.34 646.673,1548.17 609.5,1565C 587.03,1572.58 564.03,1574.58 540.5,1571C 488.934,1560.07 462.934,1528.07 462.5,1475C 464.183,1417.69 493.183,1384.86 549.5,1376.5 Z"/></g>
<g><path style="opacity:0.958" fill="#003197" d="M 771.5,1378.5 C 775.767,1378.2 779.934,1378.54 784,1379.5C 811.736,1442.87 839.569,1506.21 867.5,1569.5C 863.285,1570.8 859.118,1570.8 855,1569.5C 846.551,1549.48 837.718,1529.65 828.5,1510C 793.829,1509.17 759.162,1509.33 724.5,1510.5C 715.306,1530.08 706.306,1549.75 697.5,1569.5C 693.167,1570.83 688.833,1570.83 684.5,1569.5C 713.786,1505.93 742.786,1442.26 771.5,1378.5 Z M 777.5,1394.5 C 793.058,1428.63 808.391,1462.96 823.5,1497.5C 792.507,1498.5 761.507,1498.83 730.5,1498.5C 745.777,1463.67 761.444,1429.01 777.5,1394.5 Z"/></g>
<g><path style="opacity:0.994" fill="#003298" d="M 897.5,1378.5 C 901.167,1378.5 904.833,1378.5 908.5,1378.5C 908.5,1439.17 908.5,1499.83 908.5,1560.5C 948.5,1560.5 988.5,1560.5 1028.5,1560.5C 1028.5,1563.83 1028.5,1567.17 1028.5,1570.5C 984.833,1570.5 941.167,1570.5 897.5,1570.5C 897.5,1506.5 897.5,1442.5 897.5,1378.5 Z"/></g>
<g><path style="opacity:0.996" fill="#003298" d="M 1057.5,1378.5 C 1061.17,1378.5 1064.83,1378.5 1068.5,1378.5C 1068.5,1439.17 1068.5,1499.83 1068.5,1560.5C 1108.5,1560.5 1148.5,1560.5 1188.5,1560.5C 1188.5,1563.83 1188.5,1567.17 1188.5,1570.5C 1144.83,1570.5 1101.17,1570.5 1057.5,1570.5C 1057.5,1506.5 1057.5,1442.5 1057.5,1378.5 Z"/></g>
<g><path style="opacity:0.966" fill="#033194" d="M 1217.5,1378.5 C 1264.5,1378.5 1311.5,1378.5 1358.5,1378.5C 1358.5,1381.83 1358.5,1385.17 1358.5,1388.5C 1315.17,1388.5 1271.83,1388.5 1228.5,1388.5C 1228.5,1414.17 1228.5,1439.83 1228.5,1465.5C 1266.83,1465.5 1305.17,1465.5 1343.5,1465.5C 1343.5,1468.83 1343.5,1472.17 1343.5,1475.5C 1305.17,1475.5 1266.83,1475.5 1228.5,1475.5C 1228.5,1503.83 1228.5,1532.17 1228.5,1560.5C 1272.5,1560.5 1316.5,1560.5 1360.5,1560.5C 1360.5,1563.83 1360.5,1567.17 1360.5,1570.5C 1312.83,1570.5 1265.17,1570.5 1217.5,1570.5C 1217.5,1506.5 1217.5,1442.5 1217.5,1378.5 Z"/></g>
<g><path style="opacity:0.932" fill="#003298" d="M 1393.5,1378.5 C 1428.5,1378.33 1463.5,1378.5 1498.5,1379C 1540.37,1384.22 1556.2,1407.39 1546,1448.5C 1540.02,1462.92 1529.52,1472.42 1514.5,1477C 1533.45,1483.4 1543.95,1496.56 1546,1516.5C 1546.5,1534.5 1546.67,1552.5 1546.5,1570.5C 1542.83,1570.5 1539.17,1570.5 1535.5,1570.5C 1535.92,1551.13 1535.42,1531.79 1534,1512.5C 1530.19,1499.36 1521.69,1490.86 1508.5,1487C 1503.59,1485.52 1498.59,1484.52 1493.5,1484C 1463.84,1483.5 1434.17,1483.33 1404.5,1483.5C 1404.5,1512.5 1404.5,1541.5 1404.5,1570.5C 1400.83,1570.5 1397.17,1570.5 1393.5,1570.5C 1393.5,1506.5 1393.5,1442.5 1393.5,1378.5 Z M 1404.5,1388.5 C 1434.5,1388.33 1464.5,1388.5 1494.5,1389C 1527.92,1391.68 1541.75,1409.52 1536,1442.5C 1529.83,1456.99 1518.99,1466.16 1503.5,1470C 1500.21,1470.88 1496.88,1471.55 1493.5,1472C 1463.84,1472.5 1434.17,1472.67 1404.5,1472.5C 1404.5,1444.5 1404.5,1416.5 1404.5,1388.5 Z"/></g>
<g><path style="opacity:0.938" fill="#003297" d="M 1573.5,1379.5 C 1577.98,1378.35 1582.65,1378.18 1587.5,1379C 1614,1408.17 1640.5,1437.33 1667,1466.5C 1692.82,1437.05 1718.98,1407.88 1745.5,1379C 1750.2,1378.17 1754.87,1378.34 1759.5,1379.5C 1730.48,1412.02 1701.65,1444.68 1673,1477.5C 1672.5,1508.5 1672.33,1539.5 1672.5,1570.5C 1668.83,1570.5 1665.17,1570.5 1661.5,1570.5C 1661.67,1539.5 1661.5,1508.5 1661,1477.5C 1632.05,1444.57 1602.88,1411.91 1573.5,1379.5 Z"/></g>
<g><path style="opacity:0.987" fill="#fecb00" d="M 1936.5,1435.5 C 1949.79,1470.03 1962.12,1505.03 1973.5,1540.5C 2004.17,1541.2 2034.84,1542.03 2065.5,1543C 2069.54,1543.17 2073.54,1543.67 2077.5,1544.5C 2073.89,1552.62 2068.55,1559.46 2061.5,1565C 2046.1,1575.39 2030.43,1585.39 2014.5,1595C 2008.06,1599.14 2002.56,1604.31 1998,1610.5C 1998.02,1617.6 1999.02,1624.6 2001,1631.5C 2008.93,1652.97 2016.27,1674.63 2023,1696.5C 2024.4,1703.45 2024.73,1710.45 2024,1717.5C 1995.67,1696.5 1967.33,1675.5 1939,1654.5C 1920.18,1663.99 1903.02,1675.83 1887.5,1690C 1876.91,1698.46 1865.24,1705.13 1852.5,1710C 1849.81,1711.19 1847.14,1711.36 1844.5,1710.5C 1854.17,1677.17 1863.83,1643.83 1873.5,1610.5C 1869.65,1605.81 1865.32,1601.65 1860.5,1598C 1842.89,1586.05 1825.56,1573.72 1808.5,1561C 1802.23,1555.57 1796.9,1549.4 1792.5,1542.5C 1828.15,1541.2 1863.82,1540.54 1899.5,1540.5C 1911.55,1505.4 1923.88,1470.4 1936.5,1435.5 Z"/></g>
<g><path style="opacity:0.988" fill="#fecb00" d="M 272.5,1435.5 C 273.497,1435.47 274.164,1435.97 274.5,1437C 285.641,1471.42 296.975,1505.76 308.5,1540C 343.874,1540.94 379.208,1542.44 414.5,1544.5C 409.397,1552.44 403.064,1559.27 395.5,1565C 374.445,1578.72 353.945,1593.22 334,1608.5C 333.823,1615.96 334.823,1623.29 337,1630.5C 343.803,1648.91 349.803,1667.58 355,1686.5C 356.247,1693.78 356.747,1701.11 356.5,1708.5C 349.454,1707.09 342.787,1704.59 336.5,1701C 321.931,1691.1 307.931,1680.43 294.5,1669C 287.568,1664.04 280.235,1659.87 272.5,1656.5C 264.778,1659.53 257.445,1663.36 250.5,1668C 235.5,1679.67 220.5,1691.33 205.5,1703C 198.973,1707.26 191.973,1710.43 184.5,1712.5C 184.348,1704.4 185.181,1696.4 187,1688.5C 193.094,1668.31 199.761,1648.31 207,1628.5C 208.658,1622.55 209.658,1616.55 210,1610.5C 205.779,1606.31 201.279,1602.48 196.5,1599C 180.152,1588.49 164.152,1577.49 148.5,1566C 143.3,1561.13 138.467,1555.97 134,1550.5C 132.259,1547.69 131.092,1544.69 130.5,1541.5C 165.181,1541.55 199.847,1540.88 234.5,1539.5C 247.744,1505.02 260.41,1470.35 272.5,1435.5 Z"/></g>
<g><path style="opacity:0.988" fill="#fecb00" d="M 1585.5,1790.5 C 1586.5,1790.47 1587.16,1790.97 1587.5,1792C 1598.07,1825.2 1608.73,1858.37 1619.5,1891.5C 1655.51,1892.58 1691.51,1893.92 1727.5,1895.5C 1722.73,1903.1 1716.73,1909.6 1709.5,1915C 1692.67,1926.91 1675.67,1938.58 1658.5,1950C 1654.24,1953.38 1650.07,1956.88 1646,1960.5C 1646.08,1966.52 1646.74,1972.52 1648,1978.5C 1653.93,1997.63 1660.26,2016.63 1667,2035.5C 1669.76,2044.3 1671.26,2053.3 1671.5,2062.5C 1663.66,2061.08 1656.33,2058.25 1649.5,2054C 1634.26,2043.43 1619.6,2032.1 1605.5,2020C 1598.83,2015.33 1591.83,2011.16 1584.5,2007.5C 1576.67,2011.25 1569.33,2015.75 1562.5,2021C 1549.07,2032.43 1535.07,2043.1 1520.5,2053C 1513.08,2057.64 1505.08,2060.81 1496.5,2062.5C 1496.36,2053.34 1497.53,2044.34 1500,2035.5C 1507.73,2012.13 1515.57,1988.8 1523.5,1965.5C 1519.74,1958.9 1514.74,1953.4 1508.5,1949C 1489.64,1937.07 1471.31,1924.41 1453.5,1911C 1448.39,1905.95 1444.39,1900.12 1441.5,1893.5C 1476.83,1892.5 1512.16,1892.17 1547.5,1892.5C 1560.17,1858.5 1572.83,1824.5 1585.5,1790.5 Z"/></g>
<g><path style="opacity:0.987" fill="#fecb00" d="M 622.5,1792.5 C 624.785,1793.96 626.618,1795.96 628,1798.5C 630.607,1803.38 632.94,1808.38 635,1813.5C 641.333,1834.83 647.667,1856.17 654,1877.5C 655.847,1882.69 658.347,1887.53 661.5,1892C 696.518,1892.73 731.518,1893.73 766.5,1895C 760.205,1903.63 752.872,1911.3 744.5,1918C 727.512,1930.16 710.179,1941.83 692.5,1953C 688.941,1955.61 685.607,1958.44 682.5,1961.5C 692.988,1995.79 703.322,2030.12 713.5,2064.5C 711.926,2065.63 710.259,2065.8 708.5,2065C 704.047,2063.27 699.714,2061.27 695.5,2059C 678.32,2046.24 661.32,2033.24 644.5,2020C 637.743,2015.2 630.576,2011.04 623,2007.5C 607.718,2016.12 593.551,2026.28 580.5,2038C 568.588,2047.46 555.588,2055.12 541.5,2061C 538.497,2062.31 535.497,2062.48 532.5,2061.5C 542.136,2028.09 551.47,1994.59 560.5,1961C 560.215,1959.11 559.215,1957.78 557.5,1957C 532.126,1942.06 508.626,1924.56 487,1904.5C 484.026,1900.88 481.859,1896.88 480.5,1892.5C 515.84,1892.83 551.173,1892.5 586.5,1891.5C 598.509,1858.47 610.509,1825.47 622.5,1792.5 Z"/></g>
<g><path style="opacity:0.986" fill="#fecb00" d="M 1193.5,2197.5 C 1192.83,2197.5 1192.17,2197.5 1191.5,2197.5C 1162.49,2175.9 1132.99,2154.9 1103,2134.5C 1074.31,2154.01 1045.48,2173.35 1016.5,2192.5C 1015.53,2185.11 1016.03,2177.78 1018,2170.5C 1024.4,2149.63 1031.4,2128.97 1039,2108.5C 1041.04,2102.29 1042.04,2095.96 1042,2089.5C 1038.13,2085.3 1033.97,2081.47 1029.5,2078C 1012.23,2067.06 995.228,2055.73 978.5,2044C 971.119,2038.13 965.452,2030.96 961.5,2022.5C 994.828,2021.67 1028.16,2021.17 1061.5,2021C 1068.48,2015.23 1073.65,2008.07 1077,1999.5C 1084.8,1975.98 1092.13,1952.32 1099,1928.5C 1100.41,1924.02 1102.57,1920.02 1105.5,1916.5C 1117.23,1951.37 1128.57,1986.37 1139.5,2021.5C 1175.19,2021.73 1210.86,2022.73 1246.5,2024.5C 1242.43,2030.79 1237.77,2036.62 1232.5,2042C 1214.84,2054.5 1196.84,2066.5 1178.5,2078C 1173.13,2082.37 1168.13,2087.04 1163.5,2092C 1173.81,2127.1 1183.81,2162.26 1193.5,2197.5 Z"/></g>
</svg>
