<?xml version="1.0" encoding="utf-8"?>
<!-- Generator: Adobe Illustrator 17.0.0, SVG Export Plug-In . SVG Version: 6.00 Build 0)  -->
<!DOCTYPE svg PUBLIC "-//W3C//DTD SVG 1.1//EN" "http://www.w3.org/Graphics/SVG/1.1/DTD/svg11.dtd">
<svg version="1.1" id="Layer_1" xmlns="http://www.w3.org/2000/svg" xmlns:xlink="http://www.w3.org/1999/xlink" x="0px" y="0px"
	 width="132.472px" height="26.98px" viewBox="0 0.02 132.472 26.98" enable-background="new 0 0.02 132.472 26.98"
	 xml:space="preserve">
<g>
	<path fill="#0069B4" d="M0.039,1.021C0.013,0.945,0,0.867,0,0.79c0-0.205,0.077-0.385,0.231-0.54S0.565,0.02,0.771,0.02h3.045
		l7.015,23.126L17.769,0.02h3.045c0.205,0,0.385,0.077,0.54,0.231c0.154,0.154,0.231,0.335,0.231,0.54
		c0,0.077-0.013,0.155-0.039,0.231l-7.053,23.242c-0.231,0.796-0.682,1.452-1.349,1.965C12.475,26.744,11.704,27,10.831,27
		c-0.874,0-1.645-0.256-2.312-0.771c-0.669-0.514-1.131-1.169-1.388-1.965L0.039,1.021z"/>
	<path fill="#0069B4" d="M26.248,3.874c-0.206,0-0.385-0.077-0.54-0.231c-0.154-0.154-0.231-0.334-0.231-0.54V0.79
		c0-0.205,0.077-0.385,0.231-0.54c0.154-0.154,0.334-0.231,0.54-0.231h2.312c0.205,0,0.385,0.077,0.54,0.231
		c0.154,0.154,0.231,0.335,0.231,0.54v2.313c0,0.206-0.077,0.385-0.231,0.54c-0.155,0.154-0.335,0.231-0.54,0.231H26.248z
		 M26.248,27c-0.206,0-0.385-0.077-0.54-0.231c-0.154-0.155-0.231-0.334-0.231-0.54V8.499c0-0.205,0.077-0.385,0.231-0.54
		c0.154-0.154,0.334-0.231,0.54-0.231h2.312c0.205,0,0.385,0.077,0.54,0.231c0.154,0.154,0.231,0.334,0.231,0.54v17.73
		c0,0.207-0.077,0.385-0.231,0.54C28.946,26.923,28.766,27,28.56,27H26.248z"/>
	<path fill="#0069B4" d="M37.04,14.704l6.938-6.976h3.623c0.205,0,0.385,0.077,0.54,0.231c0.154,0.129,0.231,0.302,0.231,0.521
		c0,0.219-0.077,0.405-0.231,0.559l-7.169,7.169l9.482,9.482c0.155,0.153,0.231,0.34,0.231,0.559c0,0.218-0.077,0.391-0.231,0.521
		C50.299,26.923,50.119,27,49.913,27H46.29l-8.056-8.056l-1.195,1.195v6.09c0,0.207-0.077,0.385-0.231,0.54
		C36.654,26.923,36.474,27,36.269,27h-2.312c-0.206,0-0.385-0.077-0.54-0.231c-0.154-0.155-0.231-0.334-0.231-0.54V0.79
		c0-0.205,0.077-0.385,0.231-0.54c0.154-0.154,0.334-0.231,0.54-0.231h2.312c0.205,0,0.385,0.077,0.54,0.231
		c0.154,0.154,0.231,0.335,0.231,0.54V14.704z"/>
	<path fill="#0069B4" d="M53.999,11.583c-0.206,0-0.385-0.077-0.54-0.231c-0.154-0.154-0.231-0.334-0.231-0.54V8.499
		c0-0.205,0.077-0.385,0.231-0.54s0.334-0.231,0.54-0.231h3.083V0.79c0-0.205,0.077-0.385,0.231-0.54
		c0.154-0.154,0.334-0.231,0.54-0.231h2.313c0.205,0,0.385,0.077,0.54,0.231c0.154,0.154,0.231,0.335,0.231,0.54v6.938h7.708
		c0.205,0,0.385,0.077,0.54,0.231c0.154,0.154,0.231,0.334,0.231,0.54v2.313c0,0.206-0.077,0.385-0.231,0.54
		c-0.155,0.154-0.335,0.231-0.54,0.231h-7.708v11.562h9.25c0.205,0,0.385,0.077,0.54,0.232c0.154,0.153,0.231,0.334,0.231,0.539
		v2.313c0,0.207-0.077,0.385-0.231,0.54C70.572,26.923,70.392,27,70.187,27h-9.25c-1.08,0-1.992-0.372-2.737-1.118
		c-0.746-0.744-1.118-1.657-1.118-2.736V11.583H53.999z"/>
	<path fill="#0069B4" d="M78.666,27c-1.079,0-1.991-0.372-2.736-1.118c-0.746-0.744-1.118-1.657-1.118-2.736V11.583
		c0-1.08,0.372-1.991,1.118-2.737c0.745-0.745,1.657-1.118,2.736-1.118h10.022c1.079,0,1.991,0.373,2.736,1.118
		c0.745,0.746,1.118,1.657,1.118,2.737v11.562c0,1.079-0.373,1.992-1.118,2.736C90.679,26.628,89.767,27,88.688,27H78.666z
		 M88.688,11.583H78.666v11.562h10.022V11.583z"/>
	<path fill="#0069B4" d="M105.724,11.583h-0.077h-0.077h-5.319v14.646c0,0.207-0.077,0.385-0.231,0.54
		C99.866,26.923,99.685,27,99.48,27h-2.312c-0.206,0-0.385-0.077-0.54-0.231c-0.154-0.155-0.231-0.334-0.231-0.54V11.583
		c0-1.08,0.372-1.991,1.118-2.737c0.745-0.745,1.657-1.118,2.736-1.118h10.022c1.079,0,1.991,0.373,2.736,1.118
		c0.745,0.746,1.118,1.657,1.118,2.737v3.083c0,0.207-0.077,0.385-0.231,0.54c-0.154,0.153-0.334,0.231-0.54,0.231h-2.312
		c-0.206,0-0.385-0.077-0.54-0.231c-0.154-0.155-0.231-0.334-0.231-0.54v-3.083H105.724z"/>
</g>
<path d="M131.267,10.97c-0.118,0.189-0.271,0.3-0.459,0.335c-0.189,0.035-0.377-0.005-0.565-0.123l-2.932-2.155l0.424,3.886
	c0.023,0.212-0.035,0.395-0.177,0.547c-0.141,0.153-0.318,0.23-0.53,0.23h-2.19c-0.212,0-0.389-0.076-0.53-0.23
	c-0.141-0.153-0.2-0.336-0.177-0.547l0.353-3.78l-2.791,2.296c-0.189,0.141-0.383,0.195-0.583,0.159
	c-0.2-0.035-0.359-0.147-0.477-0.336l-1.166-1.978c-0.118-0.188-0.141-0.377-0.07-0.565c0.07-0.188,0.199-0.329,0.388-0.424
	l3.356-1.519l-3.462-1.483c-0.212-0.094-0.348-0.241-0.406-0.442c-0.059-0.2-0.03-0.394,0.088-0.583l1.166-1.837
	c0.117-0.188,0.27-0.294,0.459-0.318c0.188-0.023,0.377,0.024,0.565,0.141l2.861,2.155l-0.282-3.603
	c-0.024-0.212,0.035-0.394,0.177-0.547c0.141-0.153,0.318-0.23,0.53-0.23h2.013c0.212,0,0.389,0.077,0.53,0.23
	c0.141,0.153,0.2,0.336,0.177,0.547l-0.318,3.674l3.002-2.155c0.188-0.117,0.377-0.159,0.565-0.123
	c0.188,0.035,0.341,0.147,0.459,0.335l1.024,1.766c0.118,0.189,0.141,0.377,0.071,0.565c-0.071,0.189-0.2,0.33-0.389,0.424
	l-3.25,1.449l3.321,1.448c0.188,0.095,0.318,0.236,0.388,0.424c0.071,0.189,0.047,0.377-0.07,0.565L131.267,10.97z"/>
</svg>
